# xmcd
#
# Track frame offsets:
# 150
# 13785
# 27200
# 38762
# 51450
# 64187
# 77837
# 91097
# 105642
# 118940
# 131927
# 144112
# 156902
# 171395
# 184040
# 197160
#
# Disc length: 2788 seconds
#
#
# Revision: 4
# Processed by: cddbd v1.5.1PL0 Copyright (c) Steve Scherf et al.
# Submitted via: FreeRIP 2.942 
#
DISCID=df0ae210
DTITLE=Big Joe Williams and Sonny Boy Williamson I - Throw A Boogie Woogie
DYEAR=1988
DGENRE=Blues
TTITLE0=Good Morning School Girl
TTITLE1=Sugar Mama Blues
TTITLE2=Got The Bottle Up And Gone
TTITLE3=Early In The Morning
TTITLE4=Black Gal Blues
TTITLE5=Moonshine
TTITLE6=Whiskey Headed Blues
TTITLE7=You Give An Account
TTITLE8=Rootin' Ground Hog
TTITLE9=Borther James
TTITLE10=Peach Orchard Mama
TTITLE11=Crawlin' King Snake
TTITLE12=Highway 49
TTITLE13=Please Don't Go
TTITLE14=North Wind Blues
TTITLE15=Throw A Boogie Woogie
EXTD=
EXTT0=
EXTT1=
EXTT2=
EXTT3=
EXTT4=
EXTT5=
EXTT6=
EXTT7=
EXTT8=
EXTT9=
EXTT10=
EXTT11=
EXTT12=
EXTT13=
EXTT14=
EXTT15=
PLAYORDER=
